<svg width="83" height="19" viewBox="0 0 83 19" fill="none" xmlns="http://www.w3.org/2000/svg">
<path d="M0.96875 18V0.761719H3.67578C5.24609 0.761719 6.39453 0.863281 7.12109 1.06641C8.15234 1.33984 8.97266 1.84766 9.58203 2.58984C10.1914 3.33203 10.4961 4.20703 10.4961 5.21484C10.4961 5.87109 10.3555 6.46875 10.0742 7.00781C9.80078 7.53906 9.35156 8.03906 8.72656 8.50781C9.77344 9 10.5391 9.61719 11.0234 10.3594C11.5078 11.0938 11.75 11.9648 11.75 12.9727C11.75 13.9414 11.5 14.8242 11 15.6211C10.5 16.418 9.85547 17.0156 9.06641 17.4141C8.27734 17.8047 7.1875 18 5.79688 18H0.96875ZM4.25 3.89062V7.52344H4.96484C5.76172 7.52344 6.35156 7.35547 6.73438 7.01953C7.125 6.68359 7.32031 6.22656 7.32031 5.64844C7.32031 5.10938 7.13672 4.68359 6.76953 4.37109C6.40234 4.05078 5.84375 3.89062 5.09375 3.89062H4.25ZM4.25 10.4531V14.8711H5.07031C6.42969 14.8711 7.34375 14.6992 7.8125 14.3555C8.28906 14.0117 8.52734 13.5117 8.52734 12.8555C8.52734 12.1133 8.25 11.5273 7.69531 11.0977C7.14062 10.668 6.21875 10.4531 4.92969 10.4531H4.25ZM13.1914 0.761719H22.7188V3.99609H19.5781V18H16.25V3.99609H13.1914V0.761719ZM27.1934 0.761719H36.7207V3.99609H33.5801V18H30.252V3.99609H27.1934V0.761719ZM38.9824 0.761719H48.3926V3.97266H42.2402V7.08984H48.3926V10.2422H42.2402V14.7773H48.3926V18H38.9824V0.761719ZM67.3066 3.79688L65.0098 5.98828C63.4473 4.33984 61.6895 3.51562 59.7363 3.51562C58.0879 3.51562 56.6973 4.07812 55.5645 5.20312C54.4395 6.32812 53.877 7.71484 53.877 9.36328C53.877 10.5117 54.127 11.5312 54.627 12.4219C55.127 13.3125 55.834 14.0117 56.748 14.5195C57.6621 15.0273 58.6777 15.2812 59.7949 15.2812C60.748 15.2812 61.6191 15.1055 62.4082 14.7539C63.1973 14.3945 64.0645 13.7461 65.0098 12.8086L67.2363 15.1289C65.9629 16.3711 64.7598 17.2344 63.627 17.7188C62.4941 18.1953 61.2012 18.4336 59.748 18.4336C57.0684 18.4336 54.873 17.5859 53.1621 15.8906C51.459 14.1875 50.6074 12.0078 50.6074 9.35156C50.6074 7.63281 50.9941 6.10547 51.7676 4.76953C52.5488 3.43359 53.6621 2.35938 55.1074 1.54688C56.5605 0.734375 58.123 0.328125 59.7949 0.328125C61.2168 0.328125 62.584 0.628906 63.8965 1.23047C65.2168 1.83203 66.3535 2.6875 67.3066 3.79688ZM70.1777 0.761719H73.5059V7.26562H79.2715V0.761719H82.5879V18H79.2715V10.4414H73.5059V18H70.1777V0.761719Z" fill="black"/>
</svg>
