<?xml version="1.0" standalone="no"?>
<!DOCTYPE svg PUBLIC "-//W3C//DTD SVG 20010904//EN"
 "http://www.w3.org/TR/2001/REC-SVG-20010904/DTD/svg10.dtd">
<svg version="1.0" xmlns="http://www.w3.org/2000/svg"
 width="2828.000000pt" height="2828.000000pt" viewBox="0 0 2828.000000 2828.000000"
 preserveAspectRatio="xMidYMid meet">

<g transform="translate(0.000000,2828.000000) scale(0.100000,-0.100000)"
fill="#000000" stroke="none">
<path d="M5840 15299 c-78 -5 -153 -15 -177 -25 -24 -8 -121 -35 -215 -58
-115 -29 -202 -57 -258 -84 -47 -22 -118 -55 -158 -72 -181 -78 -392 -232
-583 -426 -137 -140 -278 -315 -319 -395 -10 -19 -37 -63 -59 -96 -43 -66
-151 -286 -181 -370 -10 -28 -21 -70 -25 -93 -4 -23 -15 -61 -25 -84 -21 -46
-73 -280 -89 -401 -35 -251 9 -683 87 -857 11 -24 23 -61 26 -83 11 -61 57
-186 80 -220 12 -16 41 -68 64 -115 50 -98 49 -98 122 -210 30 -47 88 -127
130 -178 41 -52 87 -109 101 -127 95 -122 241 -272 324 -330 24 -16 78 -57
121 -89 44 -33 93 -69 109 -81 84 -60 463 -211 580 -230 22 -4 66 -13 97 -21
143 -36 221 -42 498 -39 285 3 346 9 515 51 191 48 267 76 451 165 183 88 293
161 506 334 162 131 370 362 500 555 70 105 173 306 212 415 72 203 85 247 96
325 6 47 18 125 26 174 20 119 23 559 6 676 -53 345 -66 388 -195 654 -122
251 -284 474 -483 665 -329 317 -639 491 -1059 597 -33 9 -86 24 -117 35 -32
11 -94 24 -138 29 -126 14 -421 19 -570 9z m470 -249 c19 -5 74 -14 122 -20
228 -28 564 -167 828 -343 124 -83 153 -108 265 -229 84 -90 99 -120 73 -146
-19 -19 -49 -14 -124 22 -39 18 -94 39 -122 45 -29 6 -78 19 -110 30 -31 10
-94 25 -140 32 -84 13 -105 12 -327 -21 -186 -27 -334 -68 -462 -126 -17 -8
-37 -14 -44 -14 -7 0 -62 -25 -123 -55 -133 -65 -176 -75 -203 -48 -10 11 -25
33 -34 50 -35 64 -170 134 -297 153 -37 6 -96 16 -132 24 -107 23 -211 36
-290 37 -86 0 -246 -23 -305 -45 -22 -8 -58 -15 -81 -16 -22 0 -68 -9 -101
-21 -79 -26 -117 -23 -121 11 -2 20 21 49 120 152 123 127 249 223 360 275 25
11 70 37 100 57 110 75 377 158 585 182 76 9 140 18 142 20 9 8 388 3 421 -6z
m-947 -870 c84 -17 187 -43 231 -57 64 -21 88 -24 130 -18 112 17 145 6 124
-41 -10 -22 -83 -85 -185 -158 -46 -32 -158 -149 -441 -455 -118 -128 -192
-185 -344 -261 -133 -67 -141 -70 -260 -85 -89 -12 -184 -15 -335 -13 -210 3
-212 3 -238 28 -25 23 -27 30 -22 80 5 53 59 232 76 254 5 6 30 53 56 105 27
52 71 124 98 160 65 86 196 220 272 278 93 70 251 136 380 158 44 8 110 22
146 32 100 27 147 26 312 -7z m1806 -6 c69 -15 142 -34 161 -44 19 -10 58 -25
85 -33 200 -61 432 -263 560 -488 20 -35 47 -79 60 -97 24 -33 115 -300 115
-335 0 -32 -20 -58 -56 -73 -57 -24 -333 -29 -509 -10 -170 19 -176 20 -265
65 -153 76 -238 147 -579 489 -129 128 -243 239 -255 246 -12 8 -50 19 -85 26
-57 12 -67 11 -96 -4 -37 -20 -45 -39 -45 -107 0 -46 1 -47 88 -120 83 -70
259 -246 318 -319 15 -19 52 -61 81 -92 82 -88 98 -142 55 -191 -14 -16 -30
-17 -166 -12 -83 4 -401 8 -706 9 -486 3 -560 5 -587 19 -66 35 -50 73 97 229
58 61 115 125 128 142 26 36 94 100 207 194 196 164 331 249 436 277 34 8 83
31 110 49 26 19 100 61 165 94 94 48 135 63 198 72 43 6 95 18 115 25 63 23
228 18 370 -11z m-2744 -1343 c110 -5 225 -15 255 -21 85 -18 274 -113 354
-178 39 -31 179 -163 311 -293 132 -131 264 -255 293 -277 51 -38 81 -48 205
-67 20 -3 37 -8 37 -10 0 -34 -140 -127 -236 -156 -280 -86 -453 -98 -681 -50
-193 40 -265 69 -393 154 -143 95 -236 193 -377 402 -84 124 -150 287 -160
392 -6 60 -5 63 26 94 31 31 33 32 99 25 37 -3 157 -10 267 -15z m2290 -6
c136 -12 157 -44 86 -132 -56 -70 -479 -482 -533 -520 -80 -56 -221 -133 -255
-139 -48 -9 -60 -1 -65 49 -6 53 -29 85 -101 145 -108 91 -301 278 -366 356
-37 45 -86 94 -109 109 -53 38 -69 75 -48 115 9 18 25 32 38 34 43 6 1263 -9
1353 -17z m1375 5 c42 -11 70 -48 70 -91 0 -12 -17 -63 -38 -113 -22 -50 -49
-118 -62 -151 -28 -72 -146 -253 -203 -313 -64 -67 -233 -204 -331 -267 -141
-92 -281 -125 -530 -125 -150 0 -190 5 -364 42 -51 11 -127 23 -168 27 -148
14 -142 25 199 369 365 368 467 456 612 527 61 30 135 60 165 66 142 30 576
49 650 29z m-1862 -1111 c27 -53 51 -68 201 -128 185 -74 304 -92 561 -84 96
3 186 10 200 15 13 5 70 13 127 18 65 6 121 17 152 30 66 29 95 24 99 -15 6
-67 -103 -174 -318 -310 -25 -16 -64 -44 -88 -63 -47 -37 -305 -182 -325 -182
-7 0 -37 -12 -67 -26 -114 -54 -217 -84 -287 -84 -38 0 -93 -7 -123 -15 -65
-18 -499 -21 -565 -4 -22 5 -80 14 -128 19 -88 9 -168 31 -282 77 -154 64
-220 100 -398 219 -34 23 -85 53 -112 67 -30 15 -100 73 -173 145 -109 105
-123 123 -120 148 5 45 41 45 213 2 l150 -38 231 0 c214 0 236 2 310 24 43 13
99 27 124 31 25 4 94 27 153 51 59 24 112 44 118 44 5 0 40 14 77 31 112 53
186 79 216 76 24 -2 34 -11 54 -48z"/>
<path d="M14690 14814 c-15 -7 -30 -20 -34 -30 -4 -11 -7 -185 -7 -389 l0
-370 26 -22 26 -23 890 0 890 0 25 -25 25 -25 -1 -1367 c0 -753 -1 -1378 0
-1390 0 -13 9 -32 20 -43 19 -19 33 -20 384 -20 364 0 365 0 390 23 l25 22 4
1385 c2 762 8 1393 12 1403 4 10 19 23 32 28 14 5 388 9 897 9 l873 0 23 25
23 24 1 375 c1 365 0 376 -19 396 -21 20 -24 20 -2249 23 -1649 1 -2236 -1
-2256 -9z"/>
<path d="M19841 14817 c-20 -5 -32 -17 -40 -39 -7 -20 -11 -155 -11 -390 l0
-359 25 -24 24 -25 896 0 c882 0 895 0 915 -20 20 -20 20 -33 20 -1410 l0
-1391 25 -24 24 -25 371 0 371 0 24 25 25 24 0 1384 c0 1348 1 1385 19 1408
l19 24 897 5 c873 5 897 6 911 24 17 24 16 10 20 416 3 343 -2 386 -39 395
-35 9 -4464 11 -4496 2z"/>
<path d="M9523 14796 l-28 -24 -3 -369 c-3 -363 -3 -369 18 -396 l21 -27 1737
0 1737 0 55 -26 c65 -30 105 -65 131 -116 28 -54 28 -252 0 -307 -44 -85 -127
-132 -267 -151 -38 -5 -483 -9 -989 -9 -506 0 -932 0 -947 -1 -16 0 -37 -9
-48 -20 -19 -19 -20 -33 -20 -390 0 -357 1 -371 20 -390 20 -20 33 -20 1023
-20 1108 0 1063 2 1149 -63 23 -18 56 -55 73 -82 29 -46 30 -54 30 -154 -1
-88 -4 -113 -22 -147 -32 -60 -78 -100 -152 -131 l-66 -28 -1275 -3 c-867 -2
-1286 0 -1311 7 -23 7 -40 20 -47 36 -9 19 -12 205 -12 684 0 634 -1 660 -19
682 l-19 24 -381 0 c-352 0 -382 -1 -398 -18 -17 -17 -18 -75 -18 -1113 l0
-1096 24 -19 c23 -19 60 -19 1773 -15 1816 5 1851 6 2033 48 296 69 479 209
610 468 77 151 115 354 116 616 0 90 -2 168 -5 172 -2 4 -10 54 -16 110 -11
104 -47 235 -94 347 -32 75 -32 105 0 180 78 183 130 468 119 650 -24 420 -79
596 -249 795 -51 60 -165 149 -235 184 -25 13 -86 38 -136 56 -227 80 -226 80
-2187 80 l-1697 0 -28 -24z"/>
</g>
</svg>
